<?xml version="1.0" encoding="iso-8859-1"?>
<!-- Generator: Adobe Illustrator 21.0.0, SVG Export Plug-In . SVG Version: 6.00 Build 0)  -->
<svg xmlns="http://www.w3.org/2000/svg" xmlns:xlink="http://www.w3.org/1999/xlink" version="1.1" id="Capa_1" x="0px" y="0px" viewBox="0 0 511 511" style="enable-background:new 0 0 511 511;" xml:space="preserve" width="512" height="512">
<g>
	<g>
		<g>
			<circle style="fill:#F7CFA9;" cx="351.5" cy="167.5" r="24"/>
			<circle style="fill:#FBE7D4;" cx="159.5" cy="167.5" r="24"/>
			<path style="fill:#FBE7D4;" d="M159.5,71.5v96c0,53.019,42.981,96,96,96s96-42.981,96-96v-96H159.5z"/>
			<path style="fill:#F7CFA9;" d="M199.5,159.5v-88h-40v96c0,53.019,42.981,96,96,96c13.676,0,26.68-2.866,38.454-8.02     C241.649,254.654,199.5,212.003,199.5,159.5z"/>
			<path style="fill:#7C7B74;" d="M351.5,135.5c0,0-71.261,24-96,24s-96-24-96-24v-24h192V135.5z"/>
			<path style="fill:#5C5A51;" d="M295.5,151.5c-41.492,0-81.837-26.346-96-40h-40v24c0,0,71.261,24,96,24     c9.659,0,26.411-3.659,43.244-8.119C297.594,151.457,296.505,151.5,295.5,151.5z"/>
			<path style="fill:#578DD1;" d="M351.5,111.5l16-40c0,0-81.537-64-112-64s-112,64-112,64l16,40H351.5z"/>
			<path style="fill:#2D71C6;" d="M143.5,71.5l16,40h40l-21.688-65.065C158.387,59.817,143.5,71.5,143.5,71.5z"/>
			<polygon style="fill:#FAD677;" points="255.5,39.5 279.5,47.5 279.5,71.5 255.5,87.5 231.5,71.5 231.5,47.5    "/>
			<polygon style="fill:#F6BB1D;" points="247.5,63.5 247.5,42.167 231.5,47.5 231.5,71.5 255.5,87.5 269.5,78.167    "/>
			<path style="fill:#FFFFFF;" d="M231.5,207.5h48c0,0,0,24-24,24S231.5,207.5,231.5,207.5z"/>
		</g>
		<g>
			<rect x="191.5" y="279.5" style="fill:#D5E3F4;" width="128" height="168"/>
			<polygon style="fill:#2D71C6;" points="279.5,423.5 231.5,423.5 239.5,311.5 271.5,311.5    "/>
			<polygon style="fill:#578DD1;" points="271.5,311.5 239.5,311.5 231.5,279.5 279.5,279.5    "/>
			<path style="fill:#578DD1;" d="M391.5,503.5h-272v-192c0-17.673,14.327-32,32-32h48l56,128l56-128h48c17.673,0,32,14.327,32,32     V503.5z"/>
			<g>
				<path style="fill:#2D71C6;" d="M199.5,279.5h-48c-17.673,0-32,14.327-32,32v192h48v-192      C167.5,293.827,181.827,279.5,199.5,279.5z"/>
			</g>
		</g>
	</g>
	<g>
		<path d="M152,136.909c-13.759,3.374-24,15.806-24,30.591c0,16.482,12.727,30.039,28.868,31.382    C170.19,240.657,209.366,271,255.5,271s85.31-30.343,98.632-72.118C370.273,197.539,383,183.982,383,167.5    c0-14.785-10.241-27.216-24-30.591V135.5v-22.555l15.464-38.66c1.236-3.092,0.286-6.629-2.333-8.686    C363.576,58.886,287.627,0,255.5,0S147.424,58.886,138.869,65.6c-2.619,2.056-3.569,5.593-2.333,8.686L152,112.945V135.5V136.909z     M143,167.5c0-6.396,3.666-11.941,9-14.678V167.5c0,5.168,0.386,10.248,1.121,15.215C147.182,180.215,143,174.338,143,167.5z     M344,130.085c-22.632,7.4-70.701,21.915-88.5,21.915c-17.791,0-65.865-14.516-88.5-21.916V119h177V130.085z M255.5,256    c-48.799,0-88.5-39.701-88.5-88.5v-21.655C187.752,152.5,235.288,167,255.5,167s67.748-14.5,88.5-21.155V167.5    C344,216.299,304.299,256,255.5,256z M368,167.5c0,6.838-4.182,12.715-10.121,15.215c0.735-4.967,1.121-10.047,1.121-15.215    v-14.678C364.334,155.559,368,161.104,368,167.5z M255.5,15c21.47,0,77.855,39.764,102.936,58.966L346.422,104H164.578    l-12.015-30.035C177.64,54.764,234.018,15,255.5,15z"/>
		<path d="M227.34,77.74l24,16c2.492,1.661,5.828,1.662,8.32,0l24-16c2.087-1.391,3.34-3.732,3.34-6.24v-24    c0-3.228-2.065-6.094-5.128-7.115l-24-8c-1.541-0.513-3.203-0.513-4.744,0l-24,8C226.065,41.406,224,44.272,224,47.5v24    C224,74.008,225.253,76.35,227.34,77.74z M239,52.906l16.5-5.5l16.5,5.5v14.581l-16.5,11l-16.5-11V52.906z"/>
		<circle cx="295.5" cy="175.5" r="7.5"/>
		<circle cx="215.5" cy="175.5" r="7.5"/>
		<path d="M279.5,200h-48c-4.143,0-7.5,3.358-7.5,7.5c0,12.662,8.389,31.5,31.5,31.5s31.5-18.838,31.5-31.5    C287,203.358,283.643,200,279.5,200z M255.5,224c-8.926,0-13.03-4.587-14.914-9h29.828C268.53,219.413,264.426,224,255.5,224z"/>
		<path d="M391.5,411.647c-4.143,0-7.5,3.358-7.5,7.5V503.5c0,4.142,3.357,7.5,7.5,7.5s7.5-3.358,7.5-7.5v-84.353    C399,415.005,395.643,411.647,391.5,411.647z"/>
		<path d="M359.5,272h-208c-21.78,0-39.5,17.72-39.5,39.5v192c0,4.142,3.357,7.5,7.5,7.5s7.5-3.358,7.5-7.5v-192    c0-13.509,10.99-24.5,24.5-24.5h43.095l54.034,123.506c2.568,5.869,11.174,5.87,13.742,0L316.405,287H359.5    c13.51,0,24.5,10.991,24.5,24.5v72c0,4.142,3.357,7.5,7.5,7.5s7.5-3.358,7.5-7.5v-72C399,289.72,381.28,272,359.5,272z     M269.895,287l-4.25,17h-20.289l-4.25-17H269.895z M225.644,287l6.29,25.161l-1.398,19.568L210.968,287H225.644z M255.5,388.789    l-12.083-27.617c0.052-0.279,0.093-0.563,0.114-0.854L246.483,319h18.033l2.992,41.89c0.009,0.12,0.028,0.235,0.042,0.353    L255.5,388.789z M280.463,331.729l-1.397-19.568l6.29-25.161h14.676L280.463,331.729z"/>
		<path d="M343.5,376c-4.143,0-7.5,3.358-7.5,7.5v120c0,4.142,3.357,7.5,7.5,7.5s7.5-3.358,7.5-7.5v-120    C351,379.358,347.643,376,343.5,376z"/>
		<path d="M167.5,376c-4.143,0-7.5,3.358-7.5,7.5v120c0,4.142,3.357,7.5,7.5,7.5s7.5-3.358,7.5-7.5v-120    C175,379.358,171.643,376,167.5,376z"/>
		<circle cx="255.5" cy="439.5" r="7.5"/>
		<circle cx="255.5" cy="472" r="7.5"/>
	</g>
</g>















</svg>
