<?xml version="1.0" encoding="UTF-8" standalone="no"?>
<svg
   xmlns:dc="http://purl.org/dc/elements/1.1/"
   xmlns:cc="http://creativecommons.org/ns#"
   xmlns:rdf="http://www.w3.org/1999/02/22-rdf-syntax-ns#"
   xmlns:svg="http://www.w3.org/2000/svg"
   xmlns="http://www.w3.org/2000/svg"
   xmlns:sodipodi="http://sodipodi.sourceforge.net/DTD/sodipodi-0.dtd"
   xmlns:inkscape="http://www.inkscape.org/namespaces/inkscape"
   inkscape:version="1.0 (4035a4fb49, 2020-05-01)"
   sodipodi:docname="lhp 19.01.16.svg"
   id="svg33"
   viewBox="0 0 8466.66 8466.66"
   style="shape-rendering:geometricPrecision; text-rendering:geometricPrecision; image-rendering:optimizeQuality; fill-rule:evenodd; clip-rule:evenodd"
   version="1.1"
   height="84.6666mm"
   width="84.6666mm"
   xml:space="preserve"><metadata
   id="metadata37"><rdf:RDF><cc:Work
       rdf:about=""><dc:format>image/svg+xml</dc:format><dc:type
         rdf:resource="http://purl.org/dc/dcmitype/StillImage" /></cc:Work></rdf:RDF></metadata><sodipodi:namedview
   inkscape:current-layer="svg33"
   inkscape:window-maximized="1"
   inkscape:window-y="-8"
   inkscape:window-x="-8"
   inkscape:cy="159.99988"
   inkscape:cx="159.99988"
   inkscape:zoom="1.7125013"
   showgrid="false"
   id="namedview35"
   inkscape:window-height="715"
   inkscape:window-width="1360"
   inkscape:pageshadow="2"
   inkscape:pageopacity="0"
   guidetolerance="10"
   gridtolerance="10"
   objecttolerance="10"
   borderopacity="1"
   bordercolor="#666666"
   pagecolor="#ffffff" />
 <defs
   id="defs4">
  <style
   id="style2"
   type="text/css">
   <![CDATA[
    .fil0 {fill:black}
    .fil1 {fill:#2C5A7D}
    .fil5 {fill:#CFDFE8}
    .fil2 {fill:#E8863B}
    .fil4 {fill:#ECBC54}
    .fil3 {fill:#FFFEFE}
   ]]>
  </style>
 </defs>
 <g
   transform="matrix(1.6130701,0,0,1.6130701,-2289.0333,-2238.6721)"
   id="Layer_x0020_1">
  <metadata
   id="CorelCorpID_0Corel-Layer" />
  <g
   id="_105553370153728">
   <path
   id="path7"
   d="m 2650.07,2163.23 v 4157.12 c 0,41.85 34.35,76.2 76.2,76.2 h 2607.72 c 91.32,0 171.81,-83.08 194.29,-152.84 21.84,-67.74 8.91,-935.49 8.91,-1049.42 0,-471.31 0,-942.62 0,-1413.93 1.1,-0.61 3.08,-2.76 3.39,-1.66 l 6.76,-3.44 c 0.54,-0.27 2.8,-1.41 3.39,-1.71 l 10.17,-5.02 c 1.39,-0.7 5.37,-2.75 6.76,-3.44 l 54.66,-28.47 c 1.03,-0.65 3.14,-2.15 4.24,-2.85 1.18,-0.76 3.3,-2.29 4.57,-3.09 13.88,-8.7 4.63,-3.53 21.38,-12.4 35.3,-18.71 164.08,-71.52 164.08,-107.25 V 2222.5 c 0,-60.55 -98.84,-152.4 -186.27,-152.4 H 2726.27 c -51.97,0 -76.2,40.3 -76.2,93.13 z"
   class="fil0" />
   <path
   id="path9"
   d="m 2792.71,6262.5 2448.15,-0.18 c 185.27,0.3 161.76,-20.34 161.76,-195.97 l -0.17,-2277.72 c -0.38,-71.71 -3.4,-96.12 52.15,-123.94 51.05,-25.57 201.28,-91.88 234.29,-121.39 12.07,-250.19 1,-777.18 1,-1058.33 0,-295.83 47.85,-277.1 -245.83,-277.1 H 2796.31 Z"
   class="fil1" />
   <path
   id="path11"
   d="m 4558.89,4381.49 c 10.83,-46.98 55.73,-107.88 83.86,-217.04 208.6,-809.53 -739.08,-1415.48 -1380.18,-889.83 -403.45,330.8 -418.78,902.93 -82.27,1262.01 217.25,231.83 610.88,365.3 991.41,190.19 48.24,-22.2 60.99,-51.19 100.42,-11.99 L 4877.09,5321 c 110.92,110.83 84.02,90.69 325.77,-147.77 81.33,-80.22 49.7,-94.5 -33.85,-178.02 -55.97,-55.96 -575.07,-567.19 -610.12,-613.72 z"
   class="fil0" />
   <path
   id="path13"
   d="m 3767.67,4675.01 c 234.06,0 403.37,-60.83 562.53,-222 453.52,-459.27 108.1,-1231.91 -494.8,-1231.91 h -50.8 c -567.85,0 -962.79,718.37 -500.54,1229.28 86.83,95.97 290.9,224.63 483.61,224.63 z"
   class="fil2" />
   <path
   id="path15"
   d="m 3239.92,3924.29 c 0,164.19 55.68,327.93 171.4,432.66 88.61,80.2 225.89,161.11 398.68,161.09 396.84,-0.04 697.44,-412.84 516.25,-812.83 -32.33,-71.37 -68.16,-113.13 -117.61,-162.62 -376.42,-376.7 -968.72,-67.03 -968.72,381.7 z"
   class="fil0" />
   <path
   id="path17"
   d="m 3755.59,3512.83 c -565.59,78.5 -478.66,925.73 105.14,867.37 224.63,-22.46 412.72,-223.18 382.45,-489.99 -25.13,-221.49 -234.05,-412.57 -487.59,-377.38 z"
   class="fil3" />
   <path
   id="path19"
   d="m 5402.02,2500.02 c 0,79.84 -13.29,707.68 10.39,753.76 31.83,61.93 124.48,48.18 124.48,-57.62 v -736.59 c 0,-74.4 -23.78,-92.06 -92.83,-92.06 h -524.93 c -34.58,0 -54.36,0.66 -72.66,19.23 -19.99,20.28 -27.88,42.84 -12.12,72.53 25.84,48.68 96.35,41.15 160.97,41.05 135.4,-0.2 271.38,1.38 406.7,-0.3 z"
   class="fil0" />
   <path
   id="path21"
   d="m 4361.67,4608.36 c 15.29,40.94 246.66,257.54 295.32,306.2 52.87,52.88 99.45,99.55 152.36,152.44 27.5,27.49 48.65,48.74 76.24,76.17 14.86,14.77 23.14,22.98 37.68,38.1 23.37,24.29 16.99,23.96 52.55,34.75 l 103.92,-112.51 c -6.93,-12.54 -564.02,-588.42 -612.46,-606.21 -28.6,48.45 -68.63,73.27 -105.61,111.06 z"
   class="fil4" />
   <path
   id="path23"
   d="m 4478.86,2500.32 h 101.6 c 103.11,0 139.39,-132.81 -8.46,-132.81 -78.36,0 -172.15,-14.65 -176.71,58.8 -3.01,48.46 40.16,74.01 83.57,74.01 z"
   class="fil0" />
   <path
   id="path25"
   d="m 5613.39,4330.69 2.53,-2.52 c -0.17,0.16 -3.37,1.68 -2.53,2.52 z"
   class="fil5" />
   <path
   id="path27"
   d="m 5545.66,4677.83 2.52,-2.53 c -0.16,0.17 -3.36,1.68 -2.52,2.53 z"
   class="fil5" />
   <path
   id="path29"
   d="m 5545.66,3958.16 2.52,-2.52 c -0.16,0.16 -3.36,1.68 -2.52,2.52 z"
   class="fil5" />
  </g>
 </g>
</svg>
