<?xml version="1.0" encoding="UTF-8" standalone="no"?>
<svg
   xmlns:dc="http://purl.org/dc/elements/1.1/"
   xmlns:cc="http://creativecommons.org/ns#"
   xmlns:rdf="http://www.w3.org/1999/02/22-rdf-syntax-ns#"
   xmlns:svg="http://www.w3.org/2000/svg"
   xmlns="http://www.w3.org/2000/svg"
   xmlns:sodipodi="http://sodipodi.sourceforge.net/DTD/sodipodi-0.dtd"
   xmlns:inkscape="http://www.inkscape.org/namespaces/inkscape"
   inkscape:version="1.0 (4035a4fb49, 2020-05-01)"
   sodipodi:docname="paminal.svg"
   id="svg75"
   viewBox="0 0 8500 11000"
   style="shape-rendering:geometricPrecision; text-rendering:geometricPrecision; image-rendering:optimizeQuality; fill-rule:evenodd; clip-rule:evenodd"
   version="1.1"
   height="11in"
   width="8.5in"
   xml:space="preserve"><metadata
   id="metadata79"><rdf:RDF><cc:Work
       rdf:about=""><dc:format>image/svg+xml</dc:format><dc:type
         rdf:resource="http://purl.org/dc/dcmitype/StillImage" /></cc:Work></rdf:RDF></metadata><sodipodi:namedview
   inkscape:current-layer="Layer_x0020_1"
   inkscape:window-maximized="1"
   inkscape:window-y="-8"
   inkscape:window-x="-8"
   inkscape:cy="476.48248"
   inkscape:cx="1208.5931"
   inkscape:zoom="0.18347278"
   showgrid="false"
   id="namedview77"
   inkscape:window-height="715"
   inkscape:window-width="1360"
   inkscape:pageshadow="2"
   inkscape:pageopacity="0"
   guidetolerance="10"
   gridtolerance="10"
   objecttolerance="10"
   borderopacity="1"
   bordercolor="#666666"
   pagecolor="#ffffff" />
 <defs
   id="defs7">
  <style
   id="style2"
   type="text/css">
   <![CDATA[
    .fil1 {fill:#F70035}
    .fil2 {fill:#FBB513}
    .fil0 {fill:#FBD104}
   ]]>
  </style>
   <clipPath
   id="id0">
    <rect
   id="rect4"
   height="27083"
   width="21177"
   y="-2084"
   x="12753" />
   </clipPath>
 </defs>
 <g
   id="Layer_x0020_1">
  <metadata
   id="CorelCorpID_0Corel-Layer" />
  <path
   id="path10"
   d="M1578 3582c-14,147 -1,313 3,461 4,133 8,106 17,217 6,71 5,147 13,220 56,513 165,1071 336,1548 149,416 231,584 452,958 146,246 273,393 452,603 238,280 645,599 979,787 50,27 101,54 151,83 43,25 111,65 174,66 65,2 255,-115 317,-152 311,-192 542,-356 803,-607 119,-115 232,-240 336,-367 34,-41 70,-89 104,-135 69,-93 123,-178 189,-279 32,-48 59,-96 89,-146 28,-48 59,-101 85,-154 51,-105 104,-205 152,-317 235,-551 422,-1294 453,-1897 8,-152 11,-302 17,-453 3,-70 14,-158 11,-225 -3,-85 26,-140 -22,-207 -108,-16 -246,-3 -360,-14 -246,-22 -697,-128 -931,-187 -753,-187 -1132,-323 -1927,-153 -309,66 -603,139 -911,209 -101,23 -206,51 -310,67 -107,16 -212,35 -321,49 -58,8 -113,14 -171,18 -40,3 -153,1 -180,7z"
   class="fil0" />
  <path
   id="path12"
   d="M1699 3657c-15,196 -4,408 10,600 14,190 34,389 60,574 94,677 294,1326 614,1907 73,133 159,272 242,389 135,192 332,430 512,588 152,134 248,226 436,352 127,86 248,161 391,241 205,113 187,102 322,26 35,-20 65,-37 100,-57 278,-160 528,-335 736,-527l161 -154c392,-413 632,-768 874,-1331 151,-353 285,-826 346,-1227 14,-90 20,-192 37,-279 36,-186 45,-383 53,-578l23 -450c2,-25 -4,-36 -16,-56 -15,-25 -35,-16 -68,-16 -193,3 -392,-20 -576,-53 -346,-64 -680,-159 -1016,-241 -381,-93 -695,-161 -1111,-102 -575,82 -1480,361 -1978,390 -32,2 -131,-2 -152,4z"
   class="fil1" />
  
  
  <path
   id="path18"
   d="M2876 5189c-29,19 -43,15 -69,41 -19,20 -32,45 -45,72 -36,80 -25,79 -80,150 -57,73 -136,192 -152,312 -26,206 23,391 154,530 32,34 70,96 128,109 -17,-70 -41,-118 -44,-202 -3,-72 9,-148 46,-195 160,-197 339,-306 586,-396 107,-38 285,-92 411,-77 -37,1 -244,64 -290,80 -256,88 -416,168 -608,339 -31,28 -66,66 -70,130 43,-5 62,-19 88,-40 114,-89 250,-231 405,-233 107,-1 117,-16 201,-52 254,-105 536,-161 839,-177 446,-25 865,58 1148,373 38,43 69,97 93,162 29,81 16,147 19,234l45 -10c29,-98 56,-218 23,-323 -26,-86 -98,-176 -147,-229 -284,-310 -750,-342 -1164,-283 -103,14 -221,33 -320,56 -101,23 -215,62 -326,52 27,-26 83,-20 133,-77 47,-56 89,-33 163,-51 -48,-53 -321,-16 -397,-9 -64,5 -138,16 -202,3 -62,-14 -114,-38 -179,-43 9,41 33,62 33,123l-98 4c-34,103 -14,87 -129,157 -38,23 -95,58 -127,86 -15,13 -22,24 -36,35 -97,78 -195,199 -183,389 -84,-28 -166,-269 -165,-337 1,-53 17,-96 23,-147 9,-73 1,-39 49,-120 21,-36 43,-68 65,-102 23,-34 47,-68 72,-97 49,-58 23,-47 38,-129 38,-19 94,-59 139,-68l33 78c84,1 100,-1 175,28 25,9 49,20 72,29 43,17 49,1 94,3 57,3 111,30 165,39 57,9 126,-12 179,-26 186,-51 299,-159 427,-189 53,-12 126,-18 173,-35l11 -35c-380,42 -543,258 -789,238l-6 -38 73 -41c-35,-28 -110,-45 -146,-71 4,-44 47,-84 82,-96l-35 108c85,4 200,-28 172,-118 -9,-26 -18,-55 -20,-82 108,-46 193,-42 318,-58 60,-8 110,-12 172,-16 30,-2 58,-4 88,-9 20,-4 58,-11 74,-24 -61,-42 -146,18 -212,-34 -6,29 12,15 -18,24 -55,16 -268,21 -323,19 15,-82 178,-144 234,-154 -182,-20 -387,244 -466,262 -44,-33 -62,-93 -176,69 -48,69 -86,123 -211,115 -52,-72 -64,-38 -135,-64 -64,-25 -17,-97 7,-126 52,-60 141,-127 219,-178 168,-108 328,-185 545,-255 212,-68 466,-104 709,-82 116,11 228,33 335,63 50,14 103,31 149,48 37,15 169,87 170,28 0,-25 -52,-38 -96,-56 -152,-60 -305,-104 -472,-124 -552,-65 -1109,114 -1529,449 -35,28 -69,61 -92,106 -36,66 -29,89 -20,165z"
   class="fil0" />
  <path
   id="path20"
   d="M3626 5870c110,6 219,-2 331,8 296,24 530,81 740,271 88,79 220,253 237,435 35,358 -151,448 -175,496 113,-6 216,-92 269,-142 32,-29 68,-70 97,-106 36,-44 41,-89 51,-159 43,-298 -81,-538 -325,-684 -123,-74 -315,-132 -467,-149 -205,-22 -387,-9 -590,-9 -73,1 -131,-8 -168,39z"
   class="fil0" />
  <path
   id="path22"
   d="M3545 5823c86,11 210,-32 319,-50 112,-18 229,-24 347,-25 255,-4 446,-12 654,90 83,40 214,135 270,193 110,116 231,216 242,410 4,59 -4,116 -24,166 -8,21 -20,42 -32,59 -16,24 -25,31 -19,73 188,-133 283,-366 173,-589 -91,-187 -254,-305 -470,-391 -114,-46 -213,-64 -346,-81 -153,-20 -255,-16 -407,-5 -189,14 -371,40 -550,91 -49,13 -140,16 -157,59z"
   class="fil0" />
  
  <path
   id="path26"
   d="M4065 3653l-235 1 2 33c31,21 65,3 175,117 -3,68 -44,155 -57,221 66,-18 132,-112 200,-110 103,2 95,101 198,106 -15,-70 -53,-138 -62,-219 51,-35 78,-67 144,-100 28,-15 31,-14 41,-47l-240 -3c-36,-38 -54,-138 -63,-197 -36,5 -34,3 -41,36 -8,36 -41,140 -62,162z"
   class="fil0" />
  <path
   id="path28"
   d="M3412 3998l-215 0 0 45c34,20 67,20 95,44 22,19 50,49 75,62 -4,65 -55,156 -55,223 22,-14 92,-89 174,-113 43,-13 152,76 201,90 -65,-255 -51,-200 98,-304 22,-15 20,-15 23,-47l-219 -1c-33,-51 -55,-125 -59,-200 -56,4 -38,-10 -73,88 -10,29 -30,90 -45,113z"
   class="fil0" />
  <path
   id="path30"
   d="M4705 3996l-217 1 3 41c46,22 142,74 152,113 16,62 -44,159 -57,212 94,-6 88,-86 190,-102 82,-12 107,78 209,84 -16,-57 -57,-131 -57,-195l84 -69c46,-33 74,3 93,-62 -132,-20 -157,25 -237,-38 -37,-29 -48,-127 -60,-178l-14 -27c-8,32 -76,204 -89,220z"
   class="fil0" />
  
  
  <path
   id="path36"
   d="M3991 7175c135,0 228,-102 287,-213 67,-125 98,-248 82,-416 -20,-208 -103,-376 -260,-487 -29,-20 -122,-82 -157,-94 5,102 283,91 329,582 18,183 -29,394 -161,518 -36,34 -96,71 -120,110z"
   class="fil0" />
  <path
   id="path38"
   d="M3998 5367l-1 44c29,2 58,3 87,4 102,2 23,85 200,35 45,-12 94,-34 140,-35 60,0 118,-4 177,-9 194,-19 125,-25 328,-4 108,12 228,32 332,38 -34,-75 -373,-91 -429,-92 -170,-4 -334,19 -498,19 16,-46 44,-52 108,-79 94,-40 196,-70 297,-90 39,-8 138,-16 165,-29 -159,-20 -334,28 -468,78 -64,23 -134,60 -199,80 -142,43 -131,23 -239,40z"
   class="fil0" />
  
  <path
   id="path42"
   d="M3911 6503c0,139 -19,323 -152,383 -21,9 -44,18 -67,24l-68 26c146,41 228,-23 297,-98 63,-69 96,-206 96,-330 0,-134 -38,-257 -93,-349 -46,-77 -135,-185 -239,-207 21,30 106,81 172,217 56,115 54,193 54,334z"
   class="fil0" />
  <path
   id="path44"
   d="M4590 6660c0,183 -3,257 -137,400 -26,28 -55,46 -82,84l81 -28c81,-32 130,-84 174,-157 201,-325 -95,-827 -330,-861l5 7c5,6 1,2 8,9l67 61c14,13 18,16 28,27 117,136 186,256 186,458z"
   class="fil0" />
  <path
   id="path46"
   d="M5761 5686c-22,-101 -145,-316 -231,-391 -54,-47 -70,-75 -158,-132 -173,-112 -453,-230 -666,-261 30,42 235,116 311,152 164,79 421,235 542,374 52,60 153,225 202,258z"
   class="fil0" />
  
  <path
   id="path50"
   d="M4459 4684c1,1 3,0 3,2l26 12c79,26 176,40 257,58 213,48 457,136 642,249 37,23 76,52 110,70 -1,-29 -4,-43 -23,-60 -112,-99 -257,-180 -402,-230 -140,-49 -455,-125 -613,-101z"
   class="fil0" />
  
  
  
  <path
   id="path58"
   d="M3729 5023c1,86 -4,115 -22,193 56,-5 59,-29 126,-74 84,-57 175,-96 276,-121 62,-15 115,-16 177,-28 -74,-29 -197,-13 -275,1 -44,8 -86,16 -130,22 -55,7 -100,3 -152,7z"
   class="fil0" />
  
  
  <path
   id="path64"
   d="M3207 5472c-26,-75 -108,-111 -212,-114 1,48 21,43 90,72 31,12 89,40 122,42z"
   class="fil0" />
  
  
  
 </g>
</svg>
